<mxfile host="app.diagrams.net" modified="2023-05-26T09:00:21.861Z" agent="Mozilla/5.0 (X11; Ubuntu; Linux x86_64; rv:109.0) Gecko/20100101 Firefox/113.0" version="21.3.3" etag="xLj02mpNWOUXuGyeXo7w" type="github">
  <diagram name="Seite-1" id="x-4jTcPaCqGNyiT1aDg9">
    <mxGraphModel>
      <root>
        <mxCell id="0" />
        <mxCell id="1" parent="0" />
      </root>
    </mxGraphModel>
  </diagram>
</mxfile>
